<?xml version="1.0" encoding="utf-8"?>
<!-- Generator: Adobe Illustrator 23.0.1, SVG Export Plug-In . SVG Version: 6.00 Build 0)  -->
<svg version="1.1" id="Layer_1" xmlns="http://www.w3.org/2000/svg" xmlns:xlink="http://www.w3.org/1999/xlink" x="0px" y="0px"
	 viewBox="0 0 14 12" style="enable-background:new 0 0 14 12;" xml:space="preserve">
<style type="text/css">
	.st0{fill:#FFCD55;}
	.st1{fill:#FFFFFF;}
</style>
<g>
	<path class="st0" d="M8.59,11.34c-0.18,0.18-0.4,0.28-0.66,0.28c-0.26,0-0.48-0.09-0.66-0.28c-0.1-0.09-0.17-0.19-0.21-0.31
		C7.02,10.91,7,10.8,7,10.68s0.02-0.23,0.07-0.35c0.04-0.12,0.11-0.22,0.21-0.31l3.07-3.09H1.38c-0.26,0-0.49-0.09-0.67-0.27
		C0.54,6.49,0.45,6.26,0.45,6s0.09-0.49,0.27-0.67c0.18-0.18,0.4-0.27,0.67-0.27h8.96L7.28,1.98C7.09,1.8,7,1.58,7,1.32
		c0-0.26,0.09-0.48,0.28-0.66c0.17-0.19,0.39-0.28,0.66-0.28c0.26,0,0.48,0.09,0.66,0.28l4.68,4.68c0.19,0.17,0.28,0.39,0.28,0.66
		s-0.09,0.48-0.28,0.66L8.59,11.34z"/>
</g>
</svg>
