<?xml version="1.0" encoding="utf-8"?>
<!-- Generator: Adobe Illustrator 23.0.1, SVG Export Plug-In . SVG Version: 6.00 Build 0)  -->
<svg version="1.1" id="Layer_1" xmlns="http://www.w3.org/2000/svg" xmlns:xlink="http://www.w3.org/1999/xlink" x="0px" y="0px"
	 viewBox="0 0 21.91 24" style="enable-background:new 0 0 21.91 24;" xml:space="preserve">
<style type="text/css">
	.st0{fill:#FFCD55;}
</style>
<g>
	<g>
		<path class="st0" d="M21.4,17.55c-0.04-0.2-0.02-0.19-0.1-0.29c-0.17-0.16-0.42-0.24-0.59-0.39c-0.9,0.14-1.81,0.41-2.17,1.08
			c-0.46,0.56-0.17,1.24-0.1,1.97c0.69,0.49,0.84,0.81,2.17,0.78c0.18-0.2,0.36-0.13,0.59-0.29c0.73-0.5,0.73-1.51,0.69-2.56
			C21.67,17.69,21.74,17.63,21.4,17.55"/>
		<path class="st0" d="M15.67,0c-3.27,5.96-1.42,9.37-4.24,15.2c-0.41-0.1-0.62-0.11-0.73-0.07c0.01-1.34-1.08-4.85-0.82-5.76
			c-1.75-1.04-0.81-1.25-3-0.81c-0.44,1.52-0.77,4.75-1.75,5.9c-0.1,0.27-0.71,2.36-0.81,2.63c-0.34,0-0.44-0.81-0.78-0.81
			c-0.27-1.85,0.47-8.09-0.3-9.4C3.17,6.4,2.43,6.98,1.62,6.33C0.64,6.5,0.67,6.64,0,6.98c0,4.65,0.94,11.69,1.92,14.99
			c0.91,0.24,2.32,0.3,3.13-0.24c1.18-0.54,1.48-6.64,2.06-7.95c0.91,0,0.54,0.4,1.08,0.57c0.81,3.17,0.84,6.5,2.49,9.23
			c0.91,0,1.28,0.67,1.75,0.3c0.37-0.1,0.64-0.14,1.01-0.23c0.1-8.39,1.58-16.57,4.48-21.43C17.65,0.64,16.98,0.54,15.67,0"/>
	</g>
</g>
</svg>
